HIERARCHY
ROOT Hips
{
	OFFSET 0.000000 0.000000 0.000000
	CHANNELS 6 Xposition Yposition Zposition Zrotation Yrotation Xrotation 
	JOINT LeftUpLeg_virtual
	{
		OFFSET 0.000000 0.000000 0.000000
		CHANNELS 3 Zrotation Yrotation Xrotation
		JOINT LeftUpLeg
		{
			OFFSET 10.205400 -3.823500 0.155100
			CHANNELS 3 Zrotation Yrotation Xrotation
			JOINT LeftLeg
			{
				OFFSET 0.708757 -12.982077 0.567790
				CHANNELS 3 Zrotation Yrotation Xrotation
				JOINT LeftFoot
				{
					OFFSET -0.708756 -10.717838 -2.184338
					CHANNELS 3 Zrotation Yrotation Xrotation
					JOINT LeftToeBase
					{
						OFFSET 0.108149 -7.191104 7.560241
						CHANNELS 3 Zrotation Yrotation Xrotation
						End Site
						{
							OFFSET 0.000000 0.000000 0.000000
						}
					}
				}
			}
		}
	}
	JOINT RightUpLeg_virtual
	{
		OFFSET 0.000000 0.000000 0.000000
		CHANNELS 3 Zrotation Yrotation Xrotation
		JOINT RightUpLeg
		{
			OFFSET -10.205400 -3.823500 0.005500
			CHANNELS 3 Zrotation Yrotation Xrotation
			JOINT RightLeg
			{
				OFFSET -0.708756 -12.982134 0.610632
				CHANNELS 3 Zrotation Yrotation Xrotation
				JOINT RightFoot
				{
					OFFSET 0.708754 -10.717769 -1.945823
					CHANNELS 3 Zrotation Yrotation Xrotation
					JOINT RightToeBase
					{
						OFFSET -0.108140 -7.191069 7.372968
						CHANNELS 3 Zrotation Yrotation Xrotation
						End Site
						{
							OFFSET 0.000000 0.000000 0.000000
						}
					}
				}
			}
		}
	}
	JOINT Spine_virtual
	{
		OFFSET 0.000000 0.000000 0.000000
		CHANNELS 3 Zrotation Yrotation Xrotation
		JOINT Spine
		{
			OFFSET 0.000000 6.876099 0.125700
			CHANNELS 3 Zrotation Yrotation Xrotation
			JOINT Spine1
			{
				OFFSET 0.000000 8.022060 0.146608
				CHANNELS 3 Zrotation Yrotation Xrotation
				JOINT Spine2
				{
					OFFSET 0.000000 9.168068 0.167552
					CHANNELS 3 Zrotation Yrotation Xrotation
					JOINT Neck_virtual
					{
						OFFSET 0.000000 0.000000 0.000000
						CHANNELS 3 Zrotation Yrotation Xrotation
						JOINT Neck
						{
							OFFSET 0.000000 10.314075 0.188496
							CHANNELS 3 Zrotation Yrotation Xrotation
							JOINT Head
							{
								OFFSET 0.000000 7.643700 -2.377400
								CHANNELS 3 Zrotation Yrotation Xrotation
								End Site
								{
									OFFSET 0.000000 0.000000 0.000000
								}
							}
						}
					}
					JOINT LeftShoulder_virtual
					{
						OFFSET 0.000000 0.000000 0.000000
						CHANNELS 3 Zrotation Yrotation Xrotation
						JOINT LeftShoulder
						{
							OFFSET 4.392200 8.824978 0.174984
							CHANNELS 3 Zrotation Yrotation Xrotation
							JOINT LeftArm
							{
								OFFSET 8.771219 -2.981674 -0.026999
								CHANNELS 3 Zrotation Yrotation Xrotation
								JOINT LeftForeArm
								{
									OFFSET 8.512804 0.000000 -0.000000
									CHANNELS 3 Zrotation Yrotation Xrotation
									JOINT LeftHand
									{
										OFFSET 18.484802 0.000000 -0.000000
										CHANNELS 3 Zrotation Yrotation Xrotation
										End Site
										{
											OFFSET 0.000000 0.000000 0.000000
										}
									}
								}
							}
						}
					}
					JOINT RightShoulder_virtual
					{
						OFFSET 0.000000 0.000000 0.000000
						CHANNELS 3 Zrotation Yrotation Xrotation
						JOINT RightShoulder
						{
							OFFSET -4.392200 8.824993 0.141379
							CHANNELS 3 Zrotation Yrotation Xrotation
							JOINT RightArm
							{
								OFFSET -8.771282 -2.981682 -0.094208
								CHANNELS 3 Zrotation Yrotation Xrotation
								JOINT RightForeArm
								{
									OFFSET -8.494598 0.000000 0.000000
									CHANNELS 3 Zrotation Yrotation Xrotation
									JOINT RightHand
									{
										OFFSET -18.483803 0.000000 0.000001
										CHANNELS 3 Zrotation Yrotation Xrotation
										End Site
										{
											OFFSET 0.000000 0.000000 0.000000
										}
									}
								}
							}
						}
					}
				}
			}
		}
	}
}
MOTION
Frames: 5
Frame Time: 0.033333
-1.381127 36.403748 28.674463 -179.910584 19.098421 -179.863183 -2.854981 -3.055156 7.823476 -7.816594 6.472381 -22.268235 11.484576 5.896022 20.390321 0.676128 -6.292463 10.693751 0.000000 0.000000 0.000000 1.813368 -0.907742 4.754829 -0.525389 7.658187 -14.643985 -9.536704 1.646706 17.187198 8.254697 5.141869 11.163722 0.000000 0.000000 0.000000 -0.594270 0.393528 -3.465438 1.333398 -1.358483 -10.462089 -0.904942 -2.890909 8.767801 -0.021608 -0.004399 0.037751 -1.352404 -0.839441 10.773689 3.015094 -0.487680 14.770141 0.000000 0.000000 0.000000 0.556965 -0.305403 8.360056 -12.849948 -2.459661 1.507801 -52.687666 21.938805 19.314499 -1.055734 -52.115870 10.615500 0.000000 0.000000 0.000000 -3.478130 0.815227 7.497877 24.736686 4.269138 0.820882 48.577897 -16.303750 18.156916 -5.591344 36.395483 -6.002923 0.000000 0.000000 0.000000 
-1.613601 36.381119 28.832176 -179.890421 19.373586 -179.924777 -2.979748 -2.754414 7.643211 -8.431066 6.591277 -22.335161 11.461422 6.540407 20.083925 0.612726 -6.305267 10.743250 0.000000 0.000000 0.000000 1.684342 -0.658505 4.704572 -0.854230 7.790945 -15.280375 -9.823063 1.277443 17.674849 8.092566 4.822935 11.403706 0.000000 0.000000 0.000000 -0.588212 0.575579 -3.325496 1.446859 -1.458805 -10.325411 -0.916339 -3.014543 8.768642 -0.016975 0.014696 0.011364 -1.392456 -0.737680 10.839608 2.993060 -0.572071 14.772067 0.000000 0.000000 0.000000 0.544754 -0.269929 8.369561 -13.032044 -2.464159 1.446911 -52.629261 22.285302 19.678286 -0.903891 -52.116590 10.458784 0.000000 0.000000 0.000000 -3.504763 0.852451 7.513378 24.647142 4.244968 0.797236 48.317417 -16.126118 17.848189 -5.712608 36.628658 -6.052926 0.000000 0.000000 0.000000 
-1.894873 36.334843 29.058653 -179.874712 20.160408 179.968928 -3.030887 -2.392530 7.309492 -8.979707 6.629368 -22.291979 11.792036 6.739474 19.742380 0.752747 -6.052902 10.842626 0.000000 0.000000 0.000000 1.444757 -0.401260 4.534215 -1.222057 8.014582 -16.231497 -9.707337 1.798370 18.100495 8.593342 4.898177 12.144581 0.000000 0.000000 0.000000 -0.578646 0.765908 -3.120823 1.681241 -1.695658 -10.100333 -0.904638 -2.853884 8.860413 -0.002563 -0.056529 -0.018949 -1.380207 -0.668154 10.927190 3.009675 -0.707910 14.881015 0.000000 0.000000 0.000000 0.527217 -0.138615 8.428635 -13.295145 -2.699454 1.391907 -52.548340 22.505040 19.845972 -0.711917 -51.658066 10.132123 0.000000 0.000000 0.000000 -3.536732 0.928361 7.553808 24.458284 4.276821 0.599842 48.058345 -16.231352 17.619286 -6.047695 37.297901 -6.093335 0.000000 0.000000 0.000000 
-2.166949 36.295273 29.303623 -179.920010 21.262953 179.889438 -3.177716 -1.960579 6.969473 -9.545920 6.836914 -22.304908 12.145663 6.517162 19.629445 0.963616 -5.590783 10.775654 0.000000 0.000000 0.000000 1.358071 -0.025278 4.321245 -1.662175 7.749417 -17.409042 -9.578732 1.972682 18.694107 9.389211 5.198297 13.197530 0.000000 0.000000 0.000000 -0.635580 1.111695 -2.981582 1.848294 -1.925827 -9.831739 -0.960949 -2.697334 8.932127 -0.015932 -0.036794 -0.037819 -1.328912 -0.632158 10.981866 3.054501 -0.881874 15.010587 0.000000 0.000000 0.000000 0.532489 -0.222323 8.450904 -13.567874 -3.095537 1.321551 -52.218186 22.609903 19.618538 -0.425938 -50.984835 9.585970 0.000000 0.000000 0.000000 -3.552339 0.966954 7.498243 24.299600 4.120979 0.479175 47.993017 -16.514824 17.502894 -6.413193 38.170082 -6.018467 0.000000 0.000000 0.000000 
-2.382066 36.276928 29.539473 -179.969010 22.562131 179.834141 -3.344901 -1.318498 6.686539 -9.904266 6.610457 -22.273763 12.621470 6.400563 19.432952 1.223286 -4.917895 10.775201 0.000000 0.000000 0.000000 1.307096 0.588625 4.182912 -2.060166 7.081333 -18.663801 -9.465529 1.872409 19.290635 10.307516 5.598657 14.295890 0.000000 0.000000 0.000000 -0.780908 1.548010 -2.922072 1.936737 -2.330441 -9.576791 -0.998933 -2.565745 9.031340 0.004033 -0.037690 -0.038113 -1.361539 -0.420196 11.075535 3.102487 -1.004391 15.183246 0.000000 0.000000 0.000000 0.495876 0.053992 8.491289 -13.683405 -3.743493 1.181379 -51.603995 22.561126 18.852312 -0.128344 -50.001476 8.958334 0.000000 0.000000 0.000000 -3.594218 1.185959 7.606053 24.177237 4.025525 0.209050 48.203066 -17.258124 17.893726 -6.936487 38.988943 -5.951204 0.000000 0.000000 0.000000 
